<svg class="img-fluid" xmlns="http://www.w3.org/2000/svg" width="424" height="424" viewBox="0 0 4240 4240"><g fill="#fff"><path d="M2086 4134 c-3 -9 -4 -20 -1 -25 3 -5 1 -18 -5 -29 -10 -18 -8 -20 20 -20 19 0 30 5 30 14 0 7 3 28 6 45 6 28 4 31 -19 31 -14 0 -28 -7 -31 -16z"></path><path d="M2323 4143 c-7 -2 -13 -11 -13 -18 0 -8 -14 -30 -30 -49 l-31 -34 48 -10 c26 -6 48 -10 49 -9 1 1 3 29 5 61 4 58 -2 70 -28 59z"></path><path d="M1886 4118 c-13 -43 -14 -88 -1 -88 35 0 45 13 45 56 0 38 -3 44 -20 44 -11 0 -22 -6 -24 -12z"></path><path d="M2515 4058 c-9 -24 -19 -49 -22 -55 -3 -9 4 -13 20 -13 20 0 30 9 47 45 23 47 20 65 -10 65 -12 0 -24 -14 -35 -42z"></path><path d="M1677 4083 c-4 -3 -7 -28 -7 -55 0 -47 1 -49 23 -42 12 3 23 7 24 8 0 0 -1 22 -4 49 -5 43 -18 58 -36 40z"></path><path d="M2693 3998 c-12 -35 -20 -65 -17 -67 12 -12 56 23 74 60 22 42 20 52 -15 63 -17 5 -23 -3 -42 -56z"></path><path d="M1995 4024 c-22 -9 -66 -22 -99 -30 -68 -17 -176 -70 -258 -125 -31 -22 -61 -39 -66 -39 -10 0 -112 -125 -112 -138 0 -5 -9 -21 -20 -35 -22 -27 -49 -118 -51 -165 l-1 -27 -8 25 c-20 64 -30 176 -20 229 5 29 10 56 10 59 0 7 -118 -8 -147 -19 -21 -8 -23 -12 -13 -24 27 -33 82 -154 106 -235 34 -112 34 -114 4 -118 -14 -2 -35 -8 -47 -14 -28 -14 -89 -2 -114 23 -10 10 -21 19 -24 19 -3 0 -5 -38 -3 -85 3 -71 6 -84 18 -79 8 3 40 15 70 26 30 11 60 24 65 28 6 4 22 10 36 14 33 7 41 -9 33 -62 -6 -47 28 -207 57 -264 40 -79 131 -213 167 -245 37 -34 163 -103 272 -148 122 -51 318 -70 380 -36 20 10 53 21 75 24 22 3 68 20 103 37 63 30 162 98 162 111 0 3 22 35 50 69 74 93 87 117 131 251 47 140 52 212 29 374 -24 172 -101 325 -202 403 -129 100 -212 139 -372 172 -55 12 -107 25 -117 31 -24 12 -47 11 -94 -7z m241 -98 c59 -11 204 -80 256 -121 98 -79 121 -107 148 -180 4 -11 17 -40 28 -65 38 -84 47 -132 45 -245 -2 -161 -17 -215 -114 -421 -17 -37 -36 -58 -156 -172 -38 -37 -98 -67 -119 -60 -5 1 -18 -3 -29 -9 -35 -19 -182 -36 -248 -29 -84 10 -128 23 -224 68 -45 21 -88 38 -95 38 -15 0 -85 70 -140 140 -42 53 -83 131 -93 180 -4 19 -14 44 -21 55 -24 37 -37 146 -29 248 4 53 11 97 16 97 5 0 9 11 9 24 0 21 15 61 57 154 28 64 218 242 257 242 3 0 25 12 47 26 71 44 249 58 405 30z"></path><path d="M1450 4011 c0 -22 20 -82 31 -95 4 -4 16 -2 26 5 18 13 18 18 5 62 -11 39 -17 47 -38 47 -17 0 -24 -6 -24 -19z"></path><path d="M1278 3969 c-15 -8 -15 -13 2 -61 20 -59 28 -64 54 -45 18 13 18 15 3 38 -10 13 -17 31 -17 40 0 24 -22 39 -42 28z"></path><path d="M2886 3914 c-10 -30 -24 -58 -33 -61 -12 -5 -12 -7 -1 -14 30 -20 54 -9 76 34 12 23 28 50 34 60 11 14 10 19 -2 27 -37 24 -56 12 -74 -46z"></path><path d="M1090 3890 l-25 -19 24 -48 c14 -26 26 -50 27 -51 1 -2 12 -1 23 3 27 8 27 43 1 95 -11 22 -21 40 -23 40 -1 0 -13 -9 -27 -20z"></path><path d="M3084 3858 c-10 -18 -24 -38 -33 -45 -14 -10 -14 -13 3 -32 25 -27 27 -27 50 12 51 85 53 97 16 97 -12 0 -26 -13 -36 -32z"></path><path d="M2822 3765 c-27 -23 -32 -34 -32 -71 0 -33 5 -46 19 -54 34 -18 41 -12 41 38 0 26 5 53 12 60 28 28 111 1 122 -40 15 -57 7 -105 -24 -138 -26 -27 -35 -31 -61 -26 -17 3 -44 17 -61 31 -54 45 -56 41 -32 -90 35 -189 38 -200 59 -196 84 15 114 12 158 -13 50 -30 57 -31 57 -12 0 42 -69 86 -202 130 -10 3 -20 18 -23 33 -3 15 -10 40 -14 55 -11 33 0 43 28 28 28 -14 106 -13 144 4 53 22 78 57 84 117 4 45 2 58 -16 81 -32 40 -105 76 -169 84 -53 6 -61 4 -90 -21z"></path><path d="M3266 3742 c-28 -40 -33 -62 -15 -62 6 0 17 -7 25 -15 19 -19 34 -19 34 -1 0 7 7 27 15 42 20 38 19 51 -4 64 -27 14 -25 15 -55 -28z"></path><path d="M900 3755 c-9 -11 -6 -22 21 -55 18 -22 38 -40 46 -40 24 0 26 28 4 56 -12 15 -21 33 -21 40 0 18 -34 18 -50 -1z"></path><path d="M742 3638 c-18 -18 -16 -22 24 -62 63 -63 87 -41 33 32 -33 45 -39 48 -57 30z"></path><path d="M3432 3610 c-18 -21 -32 -43 -32 -48 0 -16 40 -46 48 -36 4 5 20 23 35 40 l28 32 -24 26 -24 26 -31 -40z"></path><path d="M3573 3460 c-38 -45 -39 -51 -15 -73 16 -14 20 -13 55 19 20 19 37 40 37 48 0 12 -31 46 -41 46 -2 0 -19 -18 -36 -40z"></path><path d="M592 3468 c-18 -18 -14 -31 18 -55 43 -35 60 -39 60 -15 0 12 -6 25 -14 29 -7 4 -18 18 -25 31 -13 25 -22 27 -39 10z"></path><path d="M3696 3275 c-37 -31 -39 -35 -28 -59 6 -14 15 -26 20 -26 4 0 25 17 45 38 37 38 37 39 20 60 l-18 21 -39 -34z"></path><path d="M457 3286 c-4 -9 10 -29 34 -51 39 -35 42 -36 60 -19 29 26 24 37 -30 62 -58 26 -57 26 -64 8z"></path><path d="M3513 3163 c1 -16 0 -44 -1 -63 l-2 -35 -115 3 c-63 2 -115 0 -115 -4 0 -4 9 -17 19 -28 37 -40 91 -122 130 -199 57 -110 73 -130 131 -160 65 -34 72 -34 59 1 -14 37 -8 310 8 323 8 7 19 -1 38 -24 48 -64 90 -20 45 48 -14 22 -29 31 -57 35 l-38 5 1 57 c1 62 -5 68 -72 68 -28 0 -32 -3 -31 -27z m-28 -144 l30 -9 0 -129 c0 -99 -3 -127 -12 -124 -7 3 -13 14 -13 25 0 23 -70 165 -102 209 -11 15 -17 32 -13 38 7 12 52 8 110 -10z"></path><path d="M583 3132 c-34 -30 -43 -46 -48 -83 -5 -42 -2 -50 32 -97 21 -28 44 -52 51 -52 18 0 15 -25 -8 -62 -14 -23 -20 -50 -20 -88 1 -82 39 -120 122 -120 55 0 118 49 118 92 0 31 -28 110 -43 119 -5 4 5 26 22 49 24 34 31 53 31 89 -1 73 -16 121 -51 157 -31 32 -37 34 -98 34 -62 0 -68 -2 -108 -38z m171 -24 c29 -41 20 -88 -25 -140 -51 -61 -72 -62 -88 -5 -7 23 -17 52 -22 65 -9 24 0 51 29 85 23 26 87 23 106 -5z m0 -287 c4 -5 9 -29 12 -53 5 -38 3 -48 -19 -71 -28 -31 -56 -34 -87 -9 -32 26 -20 72 28 112 38 31 57 37 66 21z"></path><path d="M3816 3125 c-10 -16 -26 -25 -41 -25 -16 0 -25 -6 -25 -15 0 -8 4 -15 9 -15 5 0 13 -9 16 -20 9 -27 20 -25 66 12 44 35 47 47 21 71 -24 22 -27 22 -46 -8z"></path><path d="M355 3108 c-12 -29 -12 -34 2 -43 9 -5 28 -20 43 -32 34 -28 37 -28 50 -3 9 16 3 26 -35 65 l-46 45 -14 -32z"></path><path d="M3915 2932 c-44 -24 -50 -31 -47 -54 2 -17 9 -28 19 -28 23 0 113 53 113 67 0 21 -12 43 -24 43 -6 -1 -33 -13 -61 -28z"></path><path d="M265 2931 c-7 -13 5 -41 19 -41 6 0 22 -9 36 -20 31 -24 50 -25 50 -2 0 19 -96 77 -105 63z"></path><path d="M3984 2731 c-26 -16 -31 -24 -27 -45 3 -14 7 -26 9 -26 3 0 22 12 44 26 69 46 44 88 -26 45z"></path><path d="M180 2717 c0 -16 89 -67 116 -67 8 0 14 10 14 23 0 19 -8 26 -42 34 -24 6 -53 14 -65 18 -17 6 -23 3 -23 -8z"></path><path d="M132 2529 c5 -33 118 -72 118 -40 0 6 -103 61 -116 61 -3 0 -4 -9 -2 -21z"></path><path d="M4035 2528 c-32 -12 -48 -29 -37 -40 13 -12 107 18 110 36 4 19 -26 20 -73 4z"></path><path d="M3727 2331 c-58 -52 -60 -93 -6 -131 l29 -21 -2 49 c-1 30 3 56 11 66 19 23 61 20 96 -8 27 -22 30 -29 30 -85 0 -73 -14 -91 -79 -98 -25 -3 -46 -7 -46 -9 0 -9 142 -144 151 -144 5 0 9 -7 9 -15 0 -19 -23 -18 -75 0 -22 8 -55 15 -73 15 -26 0 -35 5 -43 28 -8 21 -12 24 -18 12 -12 -23 -1 -150 13 -150 7 0 38 7 69 15 32 8 89 15 127 15 53 0 70 3 70 14 0 19 -95 130 -125 146 -40 21 -40 40 1 40 142 0 169 179 40 260 -20 12 -60 24 -89 27 -50 5 -56 3 -90 -26z"></path><path d="M289 2337 c-17 -13 -59 -89 -59 -106 0 -6 14 -26 31 -46 36 -41 65 -47 55 -12 -4 12 -9 45 -13 72 -9 83 33 97 95 34 38 -39 67 -150 58 -223 -15 -120 -60 -202 -94 -174 -46 39 -68 160 -34 191 17 16 20 15 42 -8 25 -26 29 -56 16 -125 -8 -40 -7 -43 7 -31 9 7 19 29 23 49 8 43 -11 152 -28 164 -23 14 -72 9 -105 -11 -27 -17 -32 -27 -38 -75 -6 -45 -3 -63 14 -100 30 -60 75 -86 150 -86 50 0 61 4 83 28 42 44 78 121 78 167 0 104 -54 204 -145 266 -60 41 -105 49 -136 26z"></path><path d="M4043 2323 c-34 -4 -44 -19 -20 -29 22 -8 110 10 115 24 4 12 -24 14 -95 5z"></path><path d="M85 2310 c-11 -17 3 -28 56 -40 45 -11 51 -11 64 6 21 27 19 48 -2 39 -19 -8 -68 -8 -95 1 -9 2 -19 0 -23 -6z"></path><path d="M4085 2131 c-42 -5 -51 -10 -53 -28 -3 -21 0 -23 47 -23 28 0 54 -1 59 -2 4 -2 8 12 10 30 2 17 0 31 -5 30 -4 0 -30 -4 -58 -7z"></path><path d="M60 2080 c0 -18 6 -20 76 -20 66 0 75 2 72 18 -3 14 -16 18 -76 20 -67 3 -72 1 -72 -18z"></path><path d="M4014 1916 c-9 -23 -4 -26 55 -33 47 -5 51 -4 51 16 0 17 -6 21 -34 21 -19 0 -41 3 -50 6 -10 4 -18 0 -22 -10z"></path><path d="M128 1893 c-44 -4 -48 -6 -48 -30 0 -25 1 -26 56 -19 67 8 74 11 74 37 0 12 -6 18 -17 17 -10 -1 -39 -3 -65 -5z"></path><path d="M3976 1723 c-17 -18 0 -34 50 -49 47 -13 58 -14 65 -3 4 8 5 17 1 21 -12 11 -110 37 -116 31z"></path><path d="M207 1683 c-4 -3 -23 -9 -44 -12 -42 -7 -49 -19 -29 -46 11 -16 17 -17 29 -7 8 7 34 18 58 25 53 16 67 47 21 47 -16 0 -32 -3 -35 -7z"></path><path d="M3928 1516 c3 -25 12 -35 44 -50 34 -16 42 -16 49 -5 16 26 9 35 -44 61 l-53 26 4 -32z"></path><path d="M240 1496 c-30 -12 -55 -27 -55 -34 0 -14 4 -15 53 -7 65 11 72 15 72 41 0 28 1 28 -70 0z"></path><path d="M3400 1509 c0 -26 57 -104 112 -152 32 -29 67 -70 78 -93 23 -46 26 -117 7 -154 -18 -36 -63 -34 -91 3 -37 50 -23 156 19 144 6 -2 18 -20 27 -39 13 -28 15 -43 8 -69 -11 -37 -13 -77 -3 -49 3 8 15 25 25 37 27 29 18 76 -22 125 -27 33 -35 37 -63 32 -37 -7 -77 -46 -77 -75 0 -11 -5 -29 -11 -40 -8 -16 -5 -29 14 -62 34 -58 55 -73 109 -80 38 -5 52 -2 78 16 38 26 80 96 80 133 0 38 -50 123 -82 140 -32 17 -138 119 -138 134 0 13 6 13 31 0 10 -6 45 -15 76 -21 33 -6 68 -20 81 -32 l22 -20 0 58 0 58 -66 -6 c-42 -4 -90 -1 -135 8 -84 18 -79 18 -79 4z"></path><path d="M550 1502 c0 -5 -11 -14 -25 -20 -22 -10 -24 -15 -15 -31 12 -24 13 -170 0 -265 -6 -53 -5 -76 5 -95 16 -32 73 -87 81 -79 3 3 6 117 7 252 l2 246 -27 0 c-16 0 -28 -4 -28 -8z"></path><path d="M702 1482 c-49 -53 -62 -76 -63 -117 -1 -22 -1 -44 0 -49 1 -6 2 -48 3 -95 0 -89 16 -140 54 -171 81 -65 132 -43 195 85 24 51 29 72 29 138 0 66 -4 86 -30 136 -37 74 -70 101 -122 101 -30 0 -46 -7 -66 -28z m100 -69 c16 -71 16 -243 -1 -301 -10 -36 -16 -43 -34 -40 -37 5 -55 61 -57 179 -3 163 -2 168 25 194 38 39 52 32 67 -32z"></path><path d="M3837 1330 c-4 -15 6 -26 45 -50 52 -32 78 -33 78 -3 0 12 -19 28 -53 46 -62 32 -63 32 -70 7z"></path><path d="M295 1298 c-50 -13 -47 -10 -36 -41 10 -25 12 -25 38 -12 15 8 40 18 55 24 19 7 26 15 22 26 -7 17 -21 17 -79 3z"></path><path d="M3767 1163 c-17 -16 -4 -42 32 -66 39 -26 45 -26 64 10 4 6 -11 22 -37 37 -49 29 -50 29 -59 19z"></path><path d="M389 1117 c-31 -19 -35 -25 -28 -44 10 -28 17 -28 49 -3 14 11 31 20 38 20 19 0 11 44 -8 47 -8 1 -31 -8 -51 -20z"></path><path d="M3660 975 c-11 -13 -8 -21 20 -50 39 -40 55 -43 71 -14 9 18 8 24 -6 32 -9 5 -24 18 -33 28 -20 23 -35 24 -52 4z"></path><path d="M506 929 c-25 -29 -26 -34 -12 -47 14 -14 18 -13 41 8 26 24 30 60 9 67 -6 2 -24 -11 -38 -28z"></path><path d="M2895 894 c5 -16 10 -100 12 -188 l4 -159 -31 6 c-16 4 -30 4 -30 1 0 -14 108 -94 127 -94 5 0 9 90 10 199 1 130 5 207 13 221 15 29 10 33 -56 38 l-57 5 8 -29z"></path><path d="M1182 761 l3 -150 -30 6 c-29 5 -28 2 28 -52 83 -82 87 -76 86 129 -1 201 -3 210 -52 214 l-38 3 3 -150z"></path><path d="M1338 905 c-3 -3 -1 -25 4 -48 5 -24 7 -90 6 -147 -3 -93 -5 -105 -20 -104 -10 1 -18 -2 -18 -6 0 -11 107 -110 119 -110 8 0 11 69 11 210 l0 210 -48 0 c-27 0 -51 -2 -54 -5z"></path><path d="M680 812 c-8 -9 -28 -27 -44 -40 -22 -17 -27 -25 -18 -34 13 -13 47 14 84 65 22 30 4 38 -22 9z"></path><path d="M3530 814 c0 -20 54 -74 74 -74 26 0 19 24 -17 58 -36 35 -57 41 -57 16z"></path><path d="M1918 694 c-15 -14 -8 -34 12 -34 23 0 22 8 24 -194 1 -125 -1 -140 -16 -144 -27 -7 -22 -14 32 -55 53 -40 75 -41 61 -4 -5 12 -6 113 -3 225 5 193 4 202 -14 202 -10 0 -35 3 -54 6 -19 3 -38 2 -42 -2z"></path><path d="M2050 681 c0 -31 31 -85 80 -136 72 -76 100 -130 100 -193 0 -85 -49 -113 -107 -59 -45 40 -24 137 29 137 28 0 17 24 -14 28 -13 2 -35 -6 -48 -16 -32 -26 -41 -128 -15 -168 24 -37 70 -53 125 -45 88 14 125 60 114 140 -9 68 -29 98 -114 167 -40 32 -80 69 -88 82 -14 22 -14 22 29 22 59 0 112 -16 134 -40 28 -31 35 -24 35 35 l0 55 -130 0 c-71 0 -130 -4 -130 -9z"></path><path d="M3384 675 c-6 -16 43 -83 62 -84 5 -1 15 4 22 11 9 9 4 20 -25 50 -41 42 -51 46 -59 23z"></path><path d="M795 640 c-32 -33 -36 -41 -25 -55 7 -8 18 -15 24 -14 19 1 79 78 72 94 -9 25 -30 17 -71 -25z"></path><path d="M3246 554 c-7 -19 30 -84 49 -84 25 0 24 29 -3 64 -30 40 -37 43 -46 20z"></path><path d="M960 505 c-33 -34 -33 -36 -16 -53 17 -16 19 -15 51 22 32 38 36 66 11 66 -7 0 -27 -16 -46 -35z"></path><path d="M3068 453 c-22 -6 -22 -7 -1 -55 17 -39 27 -44 51 -29 11 7 10 16 -7 50 -12 22 -22 40 -24 40 -1 -1 -10 -3 -19 -6z"></path><path d="M1126 406 c-31 -41 -32 -52 -7 -65 16 -9 23 -4 46 29 46 66 10 99 -39 36z"></path><path d="M2880 353 c1 -21 48 -88 63 -91 16 -3 15 2 -8 47 -14 28 -32 51 -40 51 -8 0 -15 -3 -15 -7z"></path><path d="M1310 303 c-15 -35 -17 -48 -8 -54 16 -10 20 -7 42 35 18 34 17 66 -3 66 -6 0 -19 -21 -31 -47z"></path><path d="M1511 277 c-6 -6 -11 -16 -11 -21 0 -6 -7 -23 -14 -38 -13 -25 -13 -29 4 -38 10 -5 21 -10 23 -10 7 0 47 84 47 97 0 15 -36 23 -49 10z"></path><path d="M2700 260 c0 -20 29 -80 39 -80 18 0 19 15 4 53 -14 33 -43 52 -43 27z"></path><path d="M1704 188 c-12 -60 -11 -63 10 -63 14 0 22 12 32 45 18 59 18 60 -10 60 -21 0 -25 -6 -32 -42z"></path><path d="M2509 228 c-6 -28 -6 -77 1 -87 11 -19 40 -6 40 18 0 29 -18 71 -30 71 -5 0 -10 -1 -11 -2z"></path><path d="M2316 207 c-14 -10 -16 -21 -11 -63 7 -48 9 -51 32 -46 24 5 25 7 18 56 -7 60 -15 71 -39 53z"></path><path d="M1897 148 c-3 -24 -5 -44 -3 -45 8 -8 51 -6 49 3 -1 5 2 27 7 47 8 36 7 37 -20 37 -25 0 -28 -4 -33 -42z"></path><path d="M2118 183 c-13 -3 -18 -15 -18 -44 0 -21 0 -42 0 -46 -1 -5 8 -9 20 -11 16 -3 20 2 20 25 0 16 5 34 11 40 7 7 9 19 6 27 -7 16 -9 17 -39 9z"></path></g></svg>