<svg xmlns="http://www.w3.org/2000/svg" xmlns:xlink="http://www.w3.org/1999/xlink" preserveAspectRatio="xMidYMid" width="300" height="300" viewBox="0 0 300 300">
  <defs>
    <style>
      .cls-1 {
        fill: #fff;
        fill-rule: evenodd;
      }
    </style>
  </defs>
  <path d="M168.208,102.737 C168.208,109.494 152.323,111.630 152.368,112.678 C152.414,113.751 153.237,115.085 153.536,116.015 C154.210,118.108 154.971,122.134 154.961,124.301 C154.954,125.813 152.198,127.018 152.106,128.098 C151.603,134.004 151.841,144.089 151.592,144.082 C150.805,144.058 150.174,144.077 149.403,144.054 C149.181,144.048 149.436,133.884 148.994,128.107 C148.891,126.763 146.017,125.966 146.017,124.441 C146.017,122.323 146.877,117.900 147.682,115.690 C148.086,114.581 148.720,113.865 148.675,112.541 C148.642,111.584 132.848,109.513 132.848,102.644 C132.848,101.180 134.056,96.174 136.013,95.066 C135.817,93.175 137.063,90.458 138.199,90.302 C139.110,90.177 137.529,92.795 137.660,94.616 C139.476,94.370 142.408,93.961 144.382,95.620 C145.277,94.166 145.842,91.999 147.050,90.094 C147.873,88.796 148.948,87.823 148.948,86.187 C148.948,85.601 146.273,85.859 146.273,85.503 C146.273,84.584 146.227,84.209 146.227,83.081 C146.227,82.694 148.948,83.079 148.948,82.677 C148.948,81.905 148.994,80.152 148.994,78.436 C148.994,77.084 146.065,75.123 145.969,74.246 C145.802,72.715 146.975,71.759 147.416,72.647 C147.759,73.336 148.201,74.284 148.676,73.831 C149.167,73.361 148.935,71.526 148.935,71.356 C148.935,70.568 148.994,24.557 148.994,23.677 C148.994,22.797 151.270,22.839 151.238,23.670 C151.206,24.505 151.169,70.729 151.175,71.460 C151.177,71.676 150.838,73.313 151.157,73.726 C151.585,74.279 152.083,73.406 152.593,72.738 C153.262,71.863 154.206,72.711 153.955,74.165 C153.664,75.855 151.185,77.099 151.185,78.438 C151.185,80.153 151.266,82.309 151.266,82.631 C151.266,83.097 153.987,82.597 153.987,83.041 C153.987,83.991 153.987,84.656 153.987,85.458 C153.987,85.951 151.227,85.589 151.227,86.187 C151.227,87.957 152.681,89.374 152.973,90.168 C153.821,92.484 155.083,94.641 155.531,95.870 C157.221,94.026 159.916,93.942 161.811,94.207 C162.889,92.456 160.413,89.788 161.738,90.167 C162.700,90.443 164.551,92.891 163.834,94.847 C165.334,96.477 168.208,101.382 168.208,102.737 ZM150.499,125.217 C151.502,125.217 151.912,124.396 151.912,123.438 C151.912,122.481 150.863,119.654 150.544,119.654 C150.225,119.654 149.131,122.527 149.131,123.575 C149.131,124.350 149.495,125.217 150.499,125.217 ZM148.955,107.252 L151.599,107.252 L151.925,106.158 L148.889,106.158 L148.955,107.252 ZM137.129,97.485 C136.306,98.122 136.564,98.723 135.848,100.002 C134.961,101.588 134.094,103.213 135.999,104.608 C138.361,106.337 140.107,106.657 141.614,104.393 C142.109,103.649 142.877,99.992 143.269,97.775 C142.225,96.602 138.332,96.554 137.129,97.485 ZM144.695,100.014 C144.534,100.221 143.395,103.675 143.332,105.293 C143.271,106.876 143.887,107.389 144.480,107.799 C145.073,108.210 145.816,109.132 146.897,108.939 C148.173,108.711 147.470,106.911 147.095,105.039 C146.741,103.266 146.328,102.074 145.835,101.324 C145.282,100.485 145.014,99.603 144.695,100.014 ZM151.064,91.450 C150.654,91.131 149.117,91.164 148.752,91.437 C148.388,91.711 146.636,94.147 145.756,97.375 C146.343,98.157 147.220,99.601 147.736,100.631 C148.339,101.832 148.587,103.380 149.034,103.849 C149.411,104.244 150.767,104.079 151.064,103.697 C151.384,103.287 151.725,101.869 152.296,100.655 C152.966,99.233 153.474,98.418 154.191,97.375 C153.213,94.734 151.475,91.769 151.064,91.450 ZM154.067,101.663 C153.996,102.208 153.797,103.098 153.594,104.400 C153.293,106.338 152.817,108.983 154.009,108.985 C155.429,108.987 156.107,107.982 156.517,107.754 C156.927,107.526 157.620,107.105 157.676,105.291 C157.727,103.637 155.663,99.612 155.533,99.394 C155.259,98.938 154.236,100.373 154.067,101.663 ZM164.255,100.025 C163.848,98.874 163.174,97.511 162.456,96.993 C160.815,95.807 157.676,96.210 156.307,97.645 C157.676,99.992 158.921,103.991 159.559,104.693 C160.927,106.197 163.550,106.489 165.135,104.699 C166.802,102.814 164.932,101.935 164.255,100.025 Z" class="cls-1"/>
</svg>
