<svg xmlns="http://www.w3.org/2000/svg" xmlns:xlink="http://www.w3.org/1999/xlink" preserveAspectRatio="xMidYMid" width="300" height="300" viewBox="0 0 300 300">
  <defs>
    <style>
      .cls-1 {
        fill: #fff;
        fill-rule: evenodd;
      }
    </style>
  </defs>
  <path d="M157.543,122.325 C156.981,126.840 153.507,129.118 152.233,129.783 C150.867,130.497 152.490,130.908 152.555,132.376 C152.615,133.746 152.075,133.749 152.183,134.552 C152.291,135.351 153.082,135.771 153.104,137.685 C153.120,139.051 152.706,139.645 152.713,140.319 C152.736,142.335 153.997,143.890 152.616,144.066 C151.631,144.192 151.172,142.761 150.000,142.761 C148.505,142.761 147.854,144.223 147.187,144.151 C146.042,144.027 146.996,143.555 147.024,140.280 C147.031,139.493 146.820,138.629 146.804,137.529 C146.783,136.143 147.342,134.581 148.380,133.957 C149.685,133.173 150.986,133.580 150.782,132.511 C150.337,130.168 147.027,134.204 146.023,132.174 C145.550,131.218 148.620,130.453 148.608,129.370 C148.604,129.062 148.432,128.782 148.172,128.533 C147.387,127.781 145.803,127.314 145.659,127.210 C144.342,126.259 143.607,124.254 143.314,120.816 C143.022,117.378 143.379,113.395 146.164,111.994 C146.550,111.800 148.423,111.416 149.462,111.726 C150.447,112.020 150.780,110.932 152.090,111.554 C152.916,111.945 151.619,112.383 152.490,113.162 C152.758,113.402 153.214,113.179 153.561,113.125 C154.528,112.972 153.191,110.360 150.875,109.691 C148.642,109.047 146.155,108.668 145.108,106.837 C143.154,103.421 142.843,99.013 143.445,96.576 C144.507,92.279 147.044,88.825 147.016,88.121 C146.976,87.099 145.116,84.826 145.075,81.525 C145.021,77.077 148.381,75.138 148.376,73.629 C148.369,71.685 146.137,71.013 146.137,69.516 C146.137,68.223 148.066,67.982 148.066,67.982 C148.066,67.982 148.836,11.153 148.843,10.055 C148.848,9.242 150.619,9.197 150.626,10.055 C150.634,11.070 151.357,67.982 151.357,67.982 C151.357,67.982 153.091,68.184 153.091,69.667 C153.091,70.990 151.470,71.183 151.452,73.425 C151.430,76.038 154.767,76.800 154.911,81.299 C155.082,86.619 153.036,86.920 153.028,88.345 C153.026,88.782 155.967,91.729 156.019,95.101 C156.061,97.774 154.416,100.361 152.117,100.341 C150.044,100.323 148.956,98.985 149.128,96.748 C149.213,95.645 151.842,94.525 153.182,95.535 C154.414,96.465 154.200,94.054 153.400,92.015 C152.652,90.108 151.243,89.584 150.546,89.598 C149.845,89.612 148.605,90.281 147.618,91.923 C147.275,92.493 147.864,93.187 147.561,94.011 C147.195,95.012 146.682,95.002 146.315,95.861 C145.914,96.800 145.979,97.944 146.195,99.422 C146.766,103.337 149.563,105.137 150.699,105.137 C151.942,105.137 154.140,102.302 155.166,103.604 C156.295,105.038 153.596,106.305 153.651,107.308 C153.716,108.501 156.917,109.271 157.534,110.968 C157.646,111.277 158.091,117.925 157.543,122.325 ZM150.187,87.072 C151.065,87.072 152.893,84.000 152.893,81.586 C152.893,79.246 150.918,75.662 150.041,75.662 C149.163,75.662 147.481,79.684 147.481,81.732 C147.481,84.219 149.309,87.072 150.187,87.072 ZM150.736,135.966 C150.218,135.238 149.547,135.490 149.108,136.094 C148.669,136.697 148.917,138.252 149.309,138.708 C149.703,139.165 150.507,139.114 150.845,138.763 C151.143,138.454 151.192,136.608 150.736,135.966 ZM155.288,116.986 C154.521,116.328 151.572,117.241 150.125,116.773 C149.008,116.411 150.036,114.382 149.381,113.873 C148.633,113.291 146.819,113.520 145.963,115.395 C145.377,116.681 146.222,117.401 145.924,118.773 C145.390,121.232 145.624,122.925 146.347,124.172 C147.675,126.462 149.529,126.147 151.065,126.366 C152.601,126.585 154.459,125.333 154.301,124.254 C154.076,122.728 152.018,124.782 151.943,123.148 C151.885,121.872 154.208,120.695 155.036,119.789 C155.858,118.890 156.056,117.644 155.288,116.986 Z" class="cls-1"/>
</svg>
