<svg xmlns="http://www.w3.org/2000/svg" width="138" height="138" viewBox="0 0 1380 1380">
  <g fill="#fff"><path d="M517 1330 c-27 -5 -55 -14 -63 -20 -7 -7 -40 -25 -72 -40 -110 -52 -243 -187 -284 -289 -6 -14 -17 -40 -24 -58 -8 -17 -14 -37 -14 -45 0 -8 -5 -19 -10 -24 -6 -6 -7 -30 -4 -56 11 -79 -10 -77 662 -75 l584 2 24 30 c16 21 22 37 17 55 -16 71 -63 195 -96 255 -6 11 -17 32 -25 48 -7 15 -23 32 -35 39 -12 6 -47 30 -77 54 -139 108 -376 158 -583 124z m189 -113 c22 -12 56 -40 75 -61 33 -38 34 -42 34 -125 0 -106 -14 -136 -86 -182 -42 -27 -65 -34 -116 -37 -62 -4 -63 -4 -63 21 0 16 7 28 18 31 10 4 35 24 56 45 29 30 39 49 43 83 7 60 -11 119 -52 168 -37 44 -39 49 -29 75 8 21 59 13 120 -18z"></path><path d="M125 653 c-75 -9 -75 -9 -75 -68 0 -37 6 -65 20 -87 11 -18 20 -42 20 -53 0 -40 72 -156 138 -224 55 -56 85 -77 167 -116 168 -80 254 -96 402 -75 83 12 109 22 213 79 43 23 155 130 198 189 32 44 88 160 102 211 12 46 6 126 -11 136 -10 7 -1126 14 -1174 8z m635 -101 c0 -46 -23 -83 -41 -65 -8 8 -9 27 -5 57 6 36 11 46 27 46 15 0 19 -7 19 -38z m-143 -27 c35 -36 36 -55 3 -55 -19 0 -70 57 -70 78 0 23 34 11 67 -23z m289 -26 c3 -6 -10 -27 -29 -47 -31 -31 -38 -34 -52 -22 -14 12 -13 17 17 47 33 34 52 41 64 22z m-339 -97 c11 -28 -13 -33 -60 -13 -45 19 -61 45 -35 53 18 6 89 -23 95 -40z m221 4 c48 -47 33 -155 -25 -177 -31 -12 -109 -5 -129 12 -26 22 -37 80 -22 124 11 35 19 42 63 57 56 19 80 16 113 -16z m121 -35 c23 -15 5 -41 -29 -41 -34 0 -41 22 -12 39 21 13 24 13 41 2z m-345 -90 c14 -22 -7 -41 -44 -41 -45 0 -61 17 -35 37 21 15 71 18 79 4z m332 -34 c45 -39 9 -66 -37 -29 -14 12 -20 25 -16 35 9 23 21 21 53 -6z m-105 -74 c6 -16 13 -41 16 -57 5 -24 3 -27 -13 -25 -27 6 -60 75 -44 94 18 22 29 18 41 -12z m-126 7 c8 -13 -52 -73 -65 -65 -14 9 -12 27 6 53 16 23 48 29 59 12z"></path></g>
</svg>
